<?xml version="1.0" encoding="utf-8"?>
<svg xmlns="http://www.w3.org/2000/svg" viewBox="0 0 128 128" style="display:inline;enable-background:new" version="1.0" height="128" width="128">
  <title>Netsleuth Scalable Icon</title>
  <path d="M64 101C62.8524 101 62 101.892 62 103V111H55.7143C54.5667 111 53.6429 111.892 53.6429 113H7.03571C6.46193 113 6 113.446 6 114V116C6 116.554 6.46193 117 7.03571 117H53.6429C53.6429 118.108 54.5667 119 55.7143 119H72.2857C73.4333 119 74.3571 118.108 74.3571 117H120.964C121.538 117 122 116.554 122 116V114C122 113.446 121.538 113 120.964 113H74.3571C74.3571 112.585 74.227 112.199 74.0042 111.88C73.6326 111.348 73.0029 111 72.2857 111H66V103C66 101.892 65.1476 101 64 101Z" fill="#000000" opacity="0.2"/>
  <path d="M120.964 114H7.03571C6.46371 114 6 114.448 6 115V117C6 117.552 6.46371 118 7.03571 118H120.964C121.536 118 122 117.552 122 117V115C122 114.448 121.536 114 120.964 114Z" fill="url(#paint0_linear_6_242)"/>
  <path d="M66 103C66 101.895 65.1046 101 64 101C62.8954 101 62 101.895 62 103V113C62 114.105 62.8954 115 64 115C65.1046 115 66 114.105 66 113V103Z" fill="url(#paint1_linear_6_242)"/>
  <path d="M7.03571 113C6.46193 113 6 113.446 6 114V115C6 114.446 6.46193 114 7.03571 114H120.964C121.538 114 122 114.446 122 115V114C122 113.446 121.538 113 120.964 113H7.03571Z" fill="#ffffff" opacity="0.2"/>
  <path d="M72 111H56C54.8954 111 54 111.895 54 113V117C54 118.105 54.8954 119 56 119H72C73.1046 119 74 118.105 74 117V113C74 111.895 73.1046 111 72 111Z" fill="url(#paint2_linear_6_242)"/>
  <path d="M56 111C54.892 111 54 111.892 54 113V114C54 112.892 54.892 112 56 112H72C73.108 112 74 112.892 74 114V113C74 111.892 73.108 111 72 111H56Z" fill="#ffffff" opacity="0.2"/>
  <path d="M62 105H66V111H62V105Z" fill="url(#paint3_linear_6_242)" opacity="0.2"/>
  <path d="M56 111C54.892 111 54 111.714 54 112.6V113C54 112.114 54.892 111.4 56 111.4H72C73.108 111.4 74 112.114 74 113V112.6C74 111.714 73.108 111 72 111H56Z" fill="#ffffff" opacity="0.8"/>
  <path d="M112 30H16C11.5817 30 8 33.5817 8 38V98C8 102.418 11.5817 106 16 106H112C116.418 106 120 102.418 120 98V38C120 33.5817 116.418 30 112 30Z" fill="url(#paint4_linear_6_242)"/>
  <path d="M112 18H16C11.5817 18 8 21.5817 8 26V94C8 98.4183 11.5817 102 16 102H112C116.418 102 120 98.4183 120 94V26C120 21.5817 116.418 18 112 18Z" fill="#deddda"/>
  <path d="M112 22H16C13.7909 22 12 23.7909 12 26V94C12 96.2091 13.7909 98 16 98H112C114.209 98 116 96.2091 116 94V26C116 23.7909 114.209 22 112 22Z" style="fill: rgb(67, 64, 53);"/>
  <path d="M110.688 25H17.3119C16.0351 25 15 26.0446 15 27.3331V92.6669C15 93.9554 16.0351 95 17.3119 95H110.688C111.965 95 113 93.9554 113 92.6669V27.3331C113 26.0446 111.965 25 110.688 25Z" fill="url(#paint5_radial_6_242)" opacity="0.05"/>
  <g transform="matrix(1, 0, 0, 1, -6.587004, 0.332)" style="">
    <rect x="43.608" y="45.005" width="58" height="38" style="stroke-width: 1px; fill: url(&quot;#gradient-0&quot;); paint-order: fill; fill-rule: evenodd;" rx="3"/>
    <path d="M 41.587 45.073 L 41.587 40.136 C 41.587 38.491 42.41 37.668 44.055 37.668 L 66.272 37.668 C 68.74 37.668 70.798 38.902 72.443 41.371 L 76.145 45.073 L 41.587 45.073 Z" style="fill: rgb(174, 140, 1);"/>
    <rect x="41.587" y="42.668" width="58" height="38" rx="3" fill="#f5c400" style=""/>
    <ellipse style="stroke: rgb(255, 255, 255); paint-order: fill; fill: rgba(255, 255, 255, 0.525);" cx="47.347" cy="47.387" rx="1.432" ry="1.432"/>
    <ellipse style="stroke: rgb(255, 255, 255); paint-order: fill; stroke-width: 1px; fill: rgba(255, 255, 255, 0.56);" cx="53.108" cy="47.387" rx="1.432" ry="1.432"/>
  </g>
  <defs>
    <linearGradient id="paint0_linear_6_242" x1="5.99996" x2="5.99996" y1="114" y2="119" gradientUnits="userSpaceOnUse">
      <stop stop-color="#a0a0a0"/>
      <stop stop-color="#6b6b6b" offset="1"/>
    </linearGradient>
    <linearGradient id="paint1_linear_6_242" x1="63.5" x2="63.5" y1="100.5" y2="115.5" gradientUnits="userSpaceOnUse">
      <stop stop-color="#746c58"/>
      <stop stop-color="#8a836a" offset="1"/>
    </linearGradient>
    <linearGradient id="paint2_linear_6_242" x1="56" x2="56" y1="110.5" y2="120.5" gradientUnits="userSpaceOnUse">
      <stop stop-color="#bababa"/>
      <stop stop-color="#909090" offset="1"/>
    </linearGradient>
    <linearGradient id="paint3_linear_6_242" x1="62" x2="62" y1="111" y2="105" gradientUnits="userSpaceOnUse">
      <stop/>
      <stop stop-opacity="0" offset="1"/>
    </linearGradient>
    <linearGradient id="paint4_linear_6_242" x1="8.00003" x2="120" y1="106" y2="106" gradientUnits="userSpaceOnUse">
      <stop stop-color="#77767b"/>
      <stop stop-color="#c0bfbc" offset="0.036"/>
      <stop stop-color="#9a9996" offset="0.071"/>
      <stop stop-color="#9a9996" offset="0.929"/>
      <stop stop-color="#c0bfbc" offset="0.964"/>
      <stop stop-color="#77767b" offset="1"/>
    </linearGradient>
    <radialGradient id="paint5_radial_6_242" cx="0" cy="0" r="1" gradientUnits="userSpaceOnUse" gradientTransform="translate(59.9167 29.6667) rotate(180) scale(212.333 63)" spreadMethod="pad">
      <stop stop-color="#ffffff"/>
      <stop stop-color="#ffffff" stop-opacity="0.0941176" offset="1"/>
    </radialGradient>
    <linearGradient gradientUnits="userSpaceOnUse" x1="72.608" y1="45.005" x2="72.608" y2="83.005" id="gradient-0" spreadMethod="repeat" gradientTransform="matrix(-0.784344, 0.620325, -0.728054, -0.920554, 221.948779, 111.513062)">
      <stop offset="0" style="stop-color: rgb(145, 117, 0)"/>
      <stop offset="1" style="stop-color: rgb(35.026% 26.98% 0%)"/>
    </linearGradient>
  </defs>
  <text style="fill: rgba(255, 255, 255, 0.87); font-family: &quot;Arial&quot;, sans-serif; font-size: 18px; white-space: pre;" x="44.496" y="68.47">SMB</text>
</svg>